<?xml version="1.0" encoding="iso-8859-1"?>
<!-- Uploaded to: SVG Repo, www.svgrepo.com, Generator: SVG Repo Mixer Tools -->
<svg fill="#000000" version="1.1" id="Layer_1" xmlns="http://www.w3.org/2000/svg" xmlns:xlink="http://www.w3.org/1999/xlink" 
	 viewBox="0 0 503.324 503.324" xml:space="preserve">
<g>
	<g>
		<g>
			<rect x="260.341" y="260.336" width="104.136" height="52.068"/>
			<rect x="0.002" y="260.336" width="121.492" height="52.068"/>
			<rect x="199.595" y="329.759" width="104.136" height="52.068"/>
			<rect x="199.595" y="190.912" width="104.136" height="52.068"/>
			<rect x="78.103" y="190.912" width="104.136" height="52.068"/>
			<rect x="138.849" y="121.488" width="104.136" height="52.068"/>
			<rect x="321.086" y="329.759" width="104.136" height="52.068"/>
			<rect x="0.002" y="329.759" width="60.746" height="52.068"/>
			<rect x="0.002" y="121.488" width="121.492" height="52.068"/>
			<rect x="321.086" y="190.912" width="104.136" height="52.068"/>
			<rect x="381.832" y="260.336" width="121.492" height="52.068"/>
			<path d="M381.831,468.611h112.814c4.79,0,8.678-3.879,8.678-8.678v-60.746H381.831V468.611z"/>
			<rect x="442.578" y="329.759" width="60.746" height="52.068"/>
			<rect x="442.578" y="190.912" width="60.746" height="52.068"/>
			<path d="M199.593,43.391c0-4.799-3.888-8.678-8.678-8.678H78.102v69.424h121.492V43.391z"/>
			<path d="M60.746,34.713H8.678C3.888,34.713,0,38.592,0,43.391v60.746h60.746V34.713z"/>
			<path d="M0,459.933c0,4.799,3.888,8.678,8.678,8.678h112.814v-69.424H0V459.933z"/>
			<rect x="260.341" y="399.183" width="104.136" height="69.424"/>
			<rect x="138.849" y="260.336" width="104.136" height="52.068"/>
			<rect x="0.002" y="190.912" width="60.746" height="52.068"/>
			<rect x="260.341" y="121.488" width="104.136" height="52.068"/>
			<rect x="78.103" y="329.759" width="104.136" height="52.068"/>
			<rect x="138.849" y="399.183" width="104.136" height="69.424"/>
		</g>
	</g>
</g>
</svg>